<svg xmlns="http://www.w3.org/2000/svg" viewBox="0 0 192 192">
  <!-- Body -->
  <rect x="21" y="56" width="150" height="71" rx="36" fill="#e8375a"/>
  <!-- Grips -->
  <ellipse cx="45" cy="127" rx="20" ry="17" fill="#c42a4a"/>
  <ellipse cx="147" cy="127" rx="20" ry="17" fill="#c42a4a"/>
  <!-- Bumpers -->
  <rect x="29" y="51" width="38" height="8" rx="4" fill="#c42a4a"/>
  <rect x="125" y="51" width="38" height="8" rx="4" fill="#c42a4a"/>
  <!-- D-pad (center: 58.5, 91.5) -->
  <rect x="55.5" y="78" width="6" height="27" rx="1.5" fill="#fff"/>
  <rect x="45" y="88.5" width="27" height="6" rx="1.5" fill="#fff"/>
  <!-- Action buttons (center: 133.5, 91.5) -->
  <circle cx="133.5" cy="80.5" r="7" fill="#38e5c5"/>
  <circle cx="144.5" cy="91.5" r="7" fill="#f5c542"/>
  <circle cx="133.5" cy="102.5" r="7" fill="#9b59b6"/>
  <circle cx="122.5" cy="91.5" r="7" fill="#4ade80"/>
  <!-- Analog sticks -->
  <circle cx="75" cy="114" r="10" fill="#0a0a0f" opacity="0.2"/>
  <circle cx="75" cy="114" r="6" fill="#fff" opacity="0.45"/>
  <circle cx="117" cy="114" r="10" fill="#0a0a0f" opacity="0.2"/>
  <circle cx="117" cy="114" r="6" fill="#fff" opacity="0.45"/>
  <!-- Center buttons -->
  <rect x="89" y="74" width="5" height="3" rx="1.5" fill="#fff" opacity="0.35"/>
  <rect x="98" y="74" width="5" height="3" rx="1.5" fill="#fff" opacity="0.35"/>
</svg>
