<svg xmlns="http://www.w3.org/2000/svg" viewBox="0 0 512 512">
  <!-- Body -->
  <rect x="56" y="150" width="400" height="190" rx="95" fill="#e8375a"/>
  <!-- Grips -->
  <ellipse cx="120" cy="340" rx="52" ry="44" fill="#c42a4a"/>
  <ellipse cx="392" cy="340" rx="52" ry="44" fill="#c42a4a"/>
  <!-- Bumpers -->
  <rect x="78" y="136" width="100" height="22" rx="11" fill="#c42a4a"/>
  <rect x="334" y="136" width="100" height="22" rx="11" fill="#c42a4a"/>
  <!-- D-pad (center: 156, 245) -->
  <rect x="148" y="209" width="16" height="72" rx="4" fill="#fff"/>
  <rect x="120" y="237" width="72" height="16" rx="4" fill="#fff"/>
  <!-- Action buttons (center: 356, 245) -->
  <circle cx="356" cy="215" r="18" fill="#38e5c5"/>
  <circle cx="386" cy="245" r="18" fill="#f5c542"/>
  <circle cx="356" cy="275" r="18" fill="#9b59b6"/>
  <circle cx="326" cy="245" r="18" fill="#4ade80"/>
  <!-- Analog sticks -->
  <circle cx="200" cy="305" r="26" fill="#0a0a0f" opacity="0.2"/>
  <circle cx="200" cy="305" r="16" fill="#fff" opacity="0.45"/>
  <circle cx="312" cy="305" r="26" fill="#0a0a0f" opacity="0.2"/>
  <circle cx="312" cy="305" r="16" fill="#fff" opacity="0.45"/>
  <!-- Center buttons -->
  <rect x="238" y="198" width="14" height="8" rx="4" fill="#fff" opacity="0.35"/>
  <rect x="260" y="198" width="14" height="8" rx="4" fill="#fff" opacity="0.35"/>
</svg>
